HIERARCHY
ROOT Hips
{
	OFFSET	0.00	0.00	0.00
	CHANNELS 6 Xposition Yposition Zposition Zrotation Xrotation Yrotation
	JOINT LeftUpLeg
	{
		OFFSET	 0.126116	-0.014019	-0.065224
		CHANNELS 3 Zrotation Xrotation Yrotation
		JOINT LeftLeg
		{
			OFFSET	 0.000000	 0.000000	 0.569914
			CHANNELS 3 Zrotation Xrotation Yrotation
			JOINT LeftFoot
			{
				OFFSET	 0.000000	 0.000000	 0.544423
				CHANNELS 3 Zrotation Xrotation Yrotation
				JOINT LeftToeBase
				{
					OFFSET	 0.000000	 0.000000	 0.207117
					CHANNELS 3 Zrotation Xrotation Yrotation
					End Site
					{
						OFFSET	 0.000000	 0.000000	 0.207117
					}
				}
			}
		}
	}
	JOINT RightUpLeg
	{
		OFFSET	-0.124023	-0.008373	-0.065224
		CHANNELS 3 Zrotation Xrotation Yrotation
		JOINT RightLeg
		{
			OFFSET	 0.000000	 0.000000	 0.570047
			CHANNELS 3 Zrotation Xrotation Yrotation
			JOINT RightFoot
			{
				OFFSET	 0.000000	 0.000000	 0.544354
				CHANNELS 3 Zrotation Xrotation Yrotation
				JOINT RightToeBase
				{
					OFFSET	 0.000000	 0.000000	 0.207540
					CHANNELS 3 Zrotation Xrotation Yrotation
					End Site
					{
						OFFSET	 0.000000	 0.000000	 0.207540
					}
				}
			}
		}
	}
	JOINT Spine
	{
		OFFSET	 0.000184	-0.007763	 0.117403
		CHANNELS 3 Zrotation Xrotation Yrotation
		JOINT Spine1
		{
			OFFSET	 0.000000	 0.000000	 0.137269
			CHANNELS 3 Zrotation Xrotation Yrotation
			JOINT Spine2
			{
				OFFSET	 0.000000	 0.000000	 0.156879
				CHANNELS 3 Zrotation Xrotation Yrotation
				JOINT LeftShoulder
				{
					OFFSET	 0.080501	-0.002496	 0.160144
					CHANNELS 3 Zrotation Xrotation Yrotation
					JOINT LeftArm
					{
						OFFSET	 0.000000	 0.000000	 0.164363
						CHANNELS 3 Zrotation Xrotation Yrotation
						JOINT LeftForeArm
						{
							OFFSET	 0.000000	 0.000000	 0.364576
							CHANNELS 3 Zrotation Xrotation Yrotation
							JOINT LeftHand
							{
								OFFSET	 0.000000	 0.000000	 0.360812
								CHANNELS 3 Zrotation Xrotation Yrotation
								JOINT LeftHandIndex1
								{
									OFFSET	 0.000000	 0.000000	 0.086006
									CHANNELS 3 Zrotation Xrotation Yrotation
									JOINT LeftHandIndex2
									{
										OFFSET	 0.000000	 0.000000	 0.047236
										CHANNELS 3 Zrotation Xrotation Yrotation
										JOINT LeftHandIndex3
										{
											OFFSET	-0.004284	-0.000551	 0.038166
											CHANNELS 3 Zrotation Xrotation Yrotation
											End Site
											{
												OFFSET	-0.004284	-0.000551	 0.038166
											}
										}
									}
								}
							}
						}
					}
				}
				JOINT Neck
				{
					OFFSET	 0.000000	 0.000000	 0.176489
					CHANNELS 3 Zrotation Xrotation Yrotation
					JOINT Head
					{
						OFFSET	 0.000000	-0.001747	 0.077940
						CHANNELS 3 Zrotation Xrotation Yrotation
						End Site
						{
							OFFSET	 0.000000	-0.001747	 0.077940
						}
					}
				}
				JOINT RightShoulder
				{
					OFFSET	-0.080363	 0.000306	 0.159706
					CHANNELS 3 Zrotation Xrotation Yrotation
					JOINT RightArm
					{
						OFFSET	 0.000000	 0.000000	 0.164196
						CHANNELS 3 Zrotation Xrotation Yrotation
						JOINT RightForeArm
						{
							OFFSET	 0.000000	 0.000000	 0.365611
							CHANNELS 3 Zrotation Xrotation Yrotation
							JOINT RightHand
							{
								OFFSET	 0.000000	 0.000000	 0.360648
								CHANNELS 3 Zrotation Xrotation Yrotation
								JOINT RightHandIndex1
								{
									OFFSET	 0.000000	 0.000000	 0.069977
									CHANNELS 3 Zrotation Xrotation Yrotation
									JOINT RightHandIndex2
									{
										OFFSET	 0.000000	 0.000000	 0.052305
										CHANNELS 3 Zrotation Xrotation Yrotation
										JOINT RightHandIndex3
										{
											OFFSET	 0.009002	-0.000782	 0.042196
											CHANNELS 3 Zrotation Xrotation Yrotation
											End Site
											{
												OFFSET	 0.009002	-0.000782	 0.042196
											}
										}
									}
								}
							}
						}
					}
				}
			}
		}
	}
}
MOTION
Frames:    12
Frame Time: 0.03333334
-0.059172	-2.233665	 1.235800	 4.520003	-1.626890	-3.688292	 0.257444	-7.277807	-170.564300	 0.628384	-28.070740	 0.104775	 24.131860	 70.823250	-27.381500	-2.370596	 31.413900	-0.065379	-3.978118	-29.220460	-175.753400	 10.684250	-53.012620	 9.183654	 10.540380	 69.033190	-6.279244	 2.358300	 33.099430	 0.105534	 1.556803	 8.372948	 1.002990	 1.719867	 4.599146	 3.216387	-8.696196	-4.739888	-4.383702	-93.847150	 58.928130	 175.587300	 27.330190	 47.904900	-23.140580	-1.272568	-2.575222	-22.898740	 0.336962	-1.055442	-6.573263	-4.869280	 19.244020	-2.786486	-3.887627	 21.394630	 2.208955	-4.808254	 5.545551	 0.146962	-0.102706	-5.043141	 0.170472	-10.514190	 0.698935	 1.944437	 89.807630	 61.613060	-179.939300	-20.209020	 52.576900	 7.176959	-1.211676	-3.358809	 17.443230	-3.911056	 13.237210	 0.448560	 6.299332	 25.456490	-0.559784	 1.804546	 45.346750	-6.920824	 0.437427	 24.664540	 3.613544
-0.060324	-2.253969	 1.236700	 5.875190	-0.665830	-3.728483	-1.018775	-7.416956	-170.650100	 1.184815	-27.903120	 0.389428	 23.000560	 70.603870	-26.744380	-2.368248	 31.805440	-0.074247	-7.111677	-31.625460	-175.876800	 12.080050	-50.401980	 9.959512	 29.686210	 79.045050	-27.672260	 2.359038	 32.990440	 0.102999	 0.849562	 7.848852	 0.741621	 1.821608	 3.785951	 3.656542	-9.199087	-4.335615	-4.554699	-94.146710	 59.019650	 174.936600	 28.214550	 46.495980	-23.990290	-2.152771	-2.455606	-25.246170	 1.398730	-1.757659	-8.196522	-4.862996	 19.412710	-2.799209	-3.872405	 21.589320	 2.193482	-4.803640	 5.599934	 0.143784	-0.031107	-5.110690	 0.242535	-10.792910	 0.795308	 1.685679	 89.700870	 61.744380	 179.805600	-19.316000	 53.185970	 5.602102	-1.942023	-3.578169	 17.356360	-4.189061	 13.906590	 0.038715	 6.273167	 23.330260	-0.554768	 2.066706	 43.192730	-7.153948	 0.846730	 22.852700	 3.409105
-0.061048	-2.284938	 1.236934	 6.550428	 0.424077	-4.234552	-1.547437	-6.615436	-170.343900	 1.484045	-26.902210	 0.511943	 22.468430	 70.778490	-26.412070	-2.362977	 32.638460	-0.093309	-7.609232	-34.555470	-175.335800	 12.709840	-46.109000	 9.819639	 79.662990	 80.847770	-80.296170	 2.358489	 33.070530	 0.104860	 0.639132	 6.982544	 0.923393	 1.954371	 3.712631	 4.024419	-9.609236	-4.114194	-4.731249	-94.421420	 58.913370	 174.367400	 27.973490	 44.508690	-24.565330	-3.340041	-2.212747	-28.878670	 1.306287	-3.068135	-7.597649	-4.837792	 19.980250	-2.821383	-3.839911	 22.001570	 2.160472	-4.782535	 5.848192	 0.129196	 0.006144	-5.221986	 0.328741	-11.108800	 0.900565	 1.606287	 89.509060	 61.970610	 179.341400	-18.030840	 53.944350	 3.729661	-3.778505	-4.105072	 17.062210	-4.828920	 14.479480	-1.547485	 6.220645	 20.305360	-0.657209	 2.369929	 40.462550	-7.419691	 1.503655	 19.825120	 3.103993
-0.062261	-2.324408	 1.235324	 6.884400	 0.690913	-4.684555	-1.927564	-4.379812	-170.156000	 1.725659	-25.721500	 0.595950	 20.910460	 70.036480	-24.937550	-2.343183	 35.341080	-0.157104	-5.602469	-36.108640	-174.108800	 12.361270	-40.222150	 8.558764	 106.789600	 76.493680	-108.970200	 2.338959	 35.647800	 0.166228	 0.235463	 6.824380	 1.162960	 2.093244	 4.031817	 4.217448	-9.807539	-4.053080	-4.821573	-94.533450	 58.890160	 174.132900	 26.238340	 42.840640	-25.063200	-3.889354	-2.193238	-32.369270	 0.758490	-4.576209	-7.484966	-4.838517	 20.443920	-2.963314	-3.797246	 22.536130	 2.117144	-4.742769	 6.313595	 0.101583	 0.084901	-5.368502	 0.353179	-11.209590	 1.072407	 1.337166	 89.375770	 61.992230	 179.019200	-16.182310	 54.565010	 0.954347	-5.725715	-4.802598	 17.265350	-4.924028	 13.920210	-3.695707	 6.169787	 16.991350	-0.703860	 2.790688	 36.189700	-7.780131	 2.199009	 16.465890	 2.814205
-0.065631	-2.368039	 1.231875	 7.241400	 0.576881	-4.443522	-2.546403	-1.965311	-170.774700	 2.237154	-25.453570	 0.810131	 17.233380	 67.459690	-21.384760	-2.280415	 41.477680	-0.315977	-4.895202	-36.430760	-173.953100	 10.915760	-33.206160	 6.455630	 66.644130	 76.835020	-68.602950	 2.338824	 35.664580	 0.166635	-0.524902	 6.943039	 0.936243	 2.239262	 4.425437	 4.187955	-9.907686	-3.981513	-4.860661	-94.516560	 59.210730	 174.115600	 24.143680	 41.706970	-26.278260	-4.034748	-2.275893	-34.476800	 0.039926	-7.001500	-8.271272	-4.877999	 20.606620	-3.241580	-3.764361	 22.942980	 2.083749	-4.687025	 6.960877	 0.062590	 0.184067	-5.481302	 0.277139	-11.106160	 1.354287	 1.136962	 89.355930	 61.650890	 178.983800	-14.627780	 54.713280	-1.997195	-7.099129	-5.484635	 17.937540	-4.957529	 12.380320	-5.183880	 6.191453	 13.972250	-0.412141	 3.023545	 33.550740	-7.974595	 2.785810	 13.515610	 2.598197
-0.072135	-2.422771	 1.225763	 7.982189	-0.179343	-3.261413	-2.413538	 1.449413	-172.816300	 0.866078	-26.190530	 0.226583	 12.927450	 60.439170	-14.867180	-2.068519	 52.835570	-0.694414	-3.282830	-35.958030	-174.261400	 6.507165	-26.304290	 3.233375	 13.754740	 66.634120	-10.227800	 2.337888	 35.775710	 0.169354	-1.666878	 7.160132	-0.243324	 2.294770	 5.844421	 4.175394	-10.055220	-4.117611	-5.113281	-94.424100	 59.240940	 174.309000	 22.117270	 40.080220	-28.276870	-4.451396	-2.095676	-35.889960	-0.603902	-8.220224	-8.232636	-4.895432	 20.811030	-3.410142	-3.744633	 23.185060	 2.063723	-4.604695	 7.905810	 0.004421	 0.311594	-5.447987	 0.260154	-10.936000	 1.772869	 1.585122	 89.292920	 61.407480	 178.843800	-13.477450	 54.620720	-4.163901	-8.091107	-5.864940	 18.016540	-5.626077	 10.203420	-5.441829	 6.305388	 10.970220	 0.206719	 3.215444	 31.212650	-8.131689	 3.276381	 10.975600	 2.438901
-0.081497	-2.494503	 1.213667	 10.120090	-1.362463	-1.800573	-2.366290	 5.952309	-175.891900	 0.976735	-27.407660	 0.287259	 7.574739	 42.303390	-6.784346	-1.037207	 70.843240	-1.969299	-2.819648	-38.798370	-174.477700	 7.813200	-24.765590	 3.612740	-0.108268	 46.245130	 5.038752	 2.345858	 34.795560	 0.145603	-3.493105	 7.463094	-1.331437	 1.899894	 8.158288	 3.300652	-10.402160	-4.698638	-5.098493	-94.270940	 59.250490	 174.636300	 20.799590	 37.923400	-30.952990	-4.487098	-2.237876	-38.038200	-0.315386	-8.357322	-8.491687	-4.831421	 21.229950	-3.171888	-3.686153	 23.893350	 2.004366	-4.511933	 8.954592	-0.061925	 0.405080	-5.334814	 0.252477	-10.853620	 2.361206	 1.939649	 89.040780	 60.970410	 178.274300	-12.273010	 54.034570	-6.512491	-7.415085	-5.865826	 18.738700	-5.701731	 7.036485	-3.554435	 6.364873	 8.617593	 0.486170	 3.389151	 28.959630	-8.271099	 3.634791	 9.081934	 2.335339
-0.091294	-2.569902	 1.202736	 9.956343	-1.850814	-0.394562	 6.935959	 9.892473	 177.788700	 1.172049	-28.334310	 0.388888	 5.984706	 23.801030	 1.918427	-1.975748	 55.974670	-0.831133	-4.605049	-40.260400	-177.304800	 5.920483	-23.290470	 2.650732	 0.697299	 36.219760	 6.038206	 2.369423	 31.350080	 0.065436	-3.663857	 7.624232	-2.130794	 1.388375	 8.819027	 2.377208	-10.376680	-4.801190	-4.962878	-94.082600	 59.849210	 174.952700	 20.046530	 37.309620	-32.789290	-3.203208	-3.316550	-38.625080	 0.424708	-10.028110	-8.891803	-4.758217	 21.564940	-2.839812	-3.611446	 24.778640	 1.928580	-4.455879	 9.580184	-0.102416	 0.323977	-5.383155	 0.175504	-10.869360	 2.627841	 2.075349	 89.024540	 60.266060	 178.277200	-11.726400	 53.197770	-8.601402	-5.942907	-5.530098	 19.413630	-4.621327	 2.644799	-1.727118	 6.401629	 9.318389	 0.628403	 3.351818	 29.455240	-8.241373	 3.638451	 9.062447	 2.334337
-0.099900	-2.658239	 1.194637	 7.819802	-2.653074	 0.704792	 14.562980	 15.324880	 172.026400	-1.638345	-26.455770	-0.887319	 8.992990	 21.201840	-0.329447	-2.378600	 29.964070	-0.033010	-3.884022	-37.172490	 179.347000	 4.942349	-21.803540	 2.123266	 0.885188	 35.523040	 7.774093	 2.374331	 30.484830	 0.046009	-2.947573	 8.239258	-2.858783	 0.538498	 7.684522	 1.841787	-9.859885	-4.123276	-4.736719	-94.007560	 59.562410	 175.158200	 19.223850	 37.373870	-31.696400	-2.383795	-4.051613	-39.146970	-0.045251	-13.461500	-8.153508	-4.683232	 22.570420	-2.699726	-3.538076	 25.627490	 1.854185	-4.366986	 10.559640	-0.167224	 0.202473	-5.367623	 0.131144	-10.857920	 2.589026	 2.177608	 89.253360	 60.325750	 178.795300	-11.954510	 53.169810	-9.350885	-4.719861	-4.785346	 18.409950	-3.520738	-2.434114	-0.330734	 6.396118	 11.555400	 0.592449	 3.151940	 32.003480	-8.080045	 3.389411	 10.381670	 2.405053
-0.110221	-2.776560	 1.189491	 5.881057	-3.472934	 1.084231	 14.858940	 18.606030	 170.025800	-2.914717	-30.390300	-1.654298	 9.887571	 35.307630	-3.011338	-2.380399	 29.608590	-0.025183	-3.190327	-33.636270	 176.535500	 3.954098	-25.474840	 2.030447	 1.205754	 42.031590	 9.563046	 2.374315	 30.487210	 0.046063	-2.278169	 8.935622	-2.864283	-0.534484	 5.248219	 1.045651	-9.175879	-2.809731	-3.877600	-93.846800	 59.562510	 175.506800	 19.441900	 38.836170	-28.871210	-0.853529	-5.329384	-39.227020	-0.913329	-17.932400	-7.197477	-4.593692	 23.814310	-2.528816	-3.448857	 26.633200	 1.763760	-4.221840	 12.125640	-0.274552	 0.040108	-5.214046	-0.009007	-10.751980	 2.511700	 1.969536	 89.526590	 59.993840	 179.424000	-13.397590	 53.063290	-8.558577	-2.242964	-3.620874	 17.110460	-1.973527	-10.410970	 0.379041	 6.372980	 15.027250	 0.448869	 2.901489	 34.960010	-7.873152	 2.889752	 12.982760	 2.562786
-0.120621	-2.881364	 1.191620	 4.490487	-3.837398	 1.048888	 8.296609	 14.857940	 173.184000	-1.132429	-45.018630	-1.050618	 6.537290	 54.848340	-1.327564	-2.372541	 31.079170	-0.057837	-2.759657	-31.578710	 175.546700	 2.756612	-32.109720	 1.869814	 2.353779	 50.385570	 9.788536	 2.374301	 30.489930	 0.046128	-0.752317	 9.215722	-2.792900	-0.824434	 2.871201	 1.107770	-8.655519	-1.619372	-3.442862	-93.715550	 59.933860	 175.744500	 20.762880	 41.438280	-26.266130	 1.586366	-6.601008	-36.186530	-0.786826	-20.418650	-5.311835	-4.568304	 24.524100	-2.608943	-3.387270	 27.310800	 1.701376	-4.137482	 13.017010	-0.337763	-0.137672	-5.002345	-0.079888	-10.704030	 2.317503	 1.972218	 89.621360	 59.766250	 179.640100	-15.496910	 53.160220	-5.591515	 0.079752	-2.423728	 14.524520	-1.199958	-16.716840	 1.126556	 6.378337	 17.500560	 0.439551	 2.679127	 37.382090	-7.685616	 2.431350	 15.309820	 2.725449
-0.129811	-3.009197	 1.204204	 2.696134	-3.703765	 1.069062	 4.589976	 3.060810	 176.442400	-1.573637	-64.700800	-1.741715	-2.658159	 79.533640	 7.299870	-2.375007	 30.638350	-0.047974	-2.300110	-27.526910	 174.396300	 0.903668	-36.951890	 0.999044	 3.315377	 59.319190	 10.439320	 2.371383	 31.012190	 0.057816	 1.479189	 9.121740	-2.982465	-0.624256	 1.822363	 1.670130	-8.042762	-1.309379	-3.455498	-93.455540	 60.280660	 176.275300	 22.299850	 44.961710	-23.029300	 5.140255	-7.314404	-29.898760	 1.289888	-24.948630	-2.371045	-4.527330	 25.412030	-2.652231	-3.329635	 27.933210	 1.643003	-4.088417	 13.529100	-0.374799	-0.344764	-4.792364	-0.166307	-10.552710	 1.889096	 2.486011	 89.870900	 60.054130	-179.799400	-19.175080	 52.666050	 1.734310	 2.933465	-1.737117	 15.084360	-0.781135	-22.801480	 2.142653	 6.375762	 19.708990	 0.381210	 2.471753	 39.483030	-7.507873	 2.033542	 17.279130	 2.879921
